
<svg width="1024" height="1024" viewBox="0 0 1024 1024" xmlns="http://www.w3.org/2000/svg">
  <!-- Background -->
  <rect width="1024" height="1024" fill="#4A90E2" rx="180"/>
  
  <!-- Mountain silhouette -->
  <path d="M0 700 L200 400 L400 500 L600 300 L800 450 L1024 350 L1024 1024 L0 1024 Z" fill="#2C5282" opacity="0.8"/>
  
  <!-- Sun -->
  <circle cx="800" cy="200" r="80" fill="#FED7AA"/>
  
  <!-- Path/Road -->
  <path d="M100 800 Q300 750 500 780 Q700 810 900 750" stroke="#FFFFFF" stroke-width="40" fill="none" stroke-linecap="round"/>
  <path d="M100 800 Q300 750 500 780 Q700 810 900 750" stroke="#E2E8F0" stroke-width="20" fill="none" stroke-linecap="round"/>
  
  <!-- Compass/Direction indicator -->
  <g transform="translate(200,200)">
    <circle cx="0" cy="0" r="60" fill="#FFFFFF" opacity="0.9"/>
    <path d="M0,-40 L20,0 L0,40 L-20,0 Z" fill="#EF4444"/>
    <text x="0" y="6" text-anchor="middle" font-family="Arial" font-size="14" font-weight="bold" fill="#1A202C">N</text>
  </g>
  
  <!-- App name -->
  <text x="512" y="900" text-anchor="middle" font-family="Arial" font-size="120" font-weight="bold" fill="#FFFFFF">YATRA</text>
</svg>
